<svg width="512" height="512" viewBox="0 0 512 186" fill="none" xmlns="http://www.w3.org/2000/svg">
<path d="M260.5 60.485C163.679 -43.6259 49.8246 17.1055 5 60.485C96.7391 91.2405 130.303 148.267 136.784 180C165.195 95.4983 236.958 72.8544 260.5 60.485Z" fill="#04f06a"/>
<path d="M260.5 60.485C163.679 -43.6259 49.8246 17.1055 5 60.485C96.7391 91.2405 130.303 148.267 136.784 180C165.195 95.4983 236.958 72.8544 260.5 60.485ZM260.5 60.485C305.325 17.1055 419.179 -43.6259 516 60.485M260.5 60.485C352.239 91.2405 385.803 148.267 392.284 180" stroke="#00a8e8" stroke-width="10"/>
<path d="M478 83.2837C414.716 17.5704 340.298 55.9032 311 83.2837C354.895 109.958 377.156 129.26 391.717 180C410.286 126.664 462.613 91.0912 478 83.2837Z" fill="#00a8e8" stroke="#00a8e8" stroke-width="10"/>
</svg>
