<svg width="335" height="36" viewBox="0 0 335 36" fill="none" xmlns="http://www.w3.org/2000/svg">
<path d="M8.756 15.336C9.788 15.336 10.592 14.928 11.168 14.112C11.744 13.296 12.032 12.192 12.032 10.8C12.032 9.144 11.672 8.004 10.952 7.38C10.232 6.732 9.116 6.408 7.604 6.408C7.316 6.408 6.932 6.456 6.452 6.552C6.548 7.656 6.596 9.576 6.596 12.312V14.796C7.364 15.156 8.084 15.336 8.756 15.336ZM1.052 18.684V11.484C1.052 8.124 0.884 5.364 0.548 3.204C2.612 2.916 4.676 2.772 6.74 2.772C14.18 2.772 17.9 5.364 17.9 10.548C17.9 13.116 17.144 15.144 15.632 16.632C14.144 18.12 12.344 18.864 10.232 18.864C8.984 18.864 7.772 18.504 6.596 17.784V20.196C6.596 22.644 6.884 24.78 7.46 26.604C6.716 26.94 5.588 27.108 4.076 27.108C2.852 27.108 2.024 26.844 1.592 26.316C1.184 25.788 0.98 25.02 0.98 24.012C0.98 23.628 0.992 22.86 1.016 21.708C1.04 20.532 1.052 19.524 1.052 18.684ZM36.9102 26.64C35.7343 26.952 34.7263 27.108 33.8863 27.108C33.1183 27.108 32.4583 26.94 31.9063 26.604C31.3783 26.244 31.0903 25.728 31.0423 25.056C29.2903 26.592 27.3943 27.36 25.3543 27.36C21.9703 27.36 20.2783 25.668 20.2783 22.284C20.2783 22.212 20.2903 21.336 20.3143 19.656C20.3623 17.976 20.3863 16.716 20.3863 15.876C20.3863 13.38 20.1943 11.508 19.8103 10.26C20.7463 9.948 21.7183 9.792 22.7263 9.792C24.7903 9.792 25.8223 10.524 25.8223 11.988C25.8223 12.78 25.7863 14.256 25.7143 16.416C25.6423 18.576 25.6063 19.872 25.6063 20.304C25.6063 21.456 25.7863 22.344 26.1463 22.968C26.5303 23.592 26.9983 23.904 27.5503 23.904C28.7743 23.904 29.9143 23.34 30.9703 22.212C30.9463 21.276 30.9343 19.824 30.9343 17.856C30.9343 15.072 30.8503 12.54 30.6823 10.26C31.6423 9.948 32.5663 9.792 33.4543 9.792C34.4143 9.792 35.1583 9.936 35.6863 10.224C36.2143 10.512 36.4783 11.112 36.4783 12.024C36.4783 12.264 36.4423 12.996 36.3703 14.22C36.3223 15.444 36.2863 16.404 36.2623 17.1V19.692C36.2623 22.74 36.4783 25.056 36.9102 26.64ZM42.6247 9.792C43.5367 9.792 44.2447 9.948 44.7487 10.26C45.2527 10.572 45.5047 11.184 45.5047 12.096V12.564C46.1527 11.796 46.9207 11.1 47.8087 10.476C48.7207 9.852 49.6207 9.54 50.5087 9.54C51.2047 9.54 51.7447 9.708 52.1287 10.044C52.5127 10.356 52.7047 10.776 52.7047 11.304C52.7047 12.288 52.2727 13.248 51.4087 14.184C50.5687 13.656 49.7887 13.392 49.0687 13.392C48.0127 13.392 46.7767 14.124 45.3607 15.588C45.2887 17.004 45.2527 18.372 45.2527 19.692C45.2527 23.1 45.4567 25.416 45.8647 26.64C44.8567 26.952 43.8607 27.108 42.8767 27.108C41.7487 27.108 40.9567 26.916 40.5007 26.532C40.0687 26.124 39.8527 25.536 39.8527 24.768C39.8527 24.384 39.8647 23.484 39.8887 22.068C39.9367 20.652 39.9607 19.524 39.9607 18.684C39.9607 15.252 39.8767 12.444 39.7087 10.26C40.6207 9.948 41.5927 9.792 42.6247 9.792ZM60.3105 11.52C61.7025 10.224 63.2025 9.576 64.8105 9.576C66.9705 9.576 68.6385 10.368 69.8145 11.952C70.9905 13.512 71.5785 15.528 71.5785 18C71.5785 20.64 70.8225 22.86 69.3105 24.66C67.7985 26.46 65.6265 27.36 62.7945 27.36C59.7225 27.36 57.0825 26.544 54.8745 24.912C55.0425 23.472 55.1265 20.892 55.1265 17.172C55.1265 14.076 55.0545 10.536 54.9105 6.552C54.7905 3.6 54.5865 1.656 54.2985 0.719999C55.4265 0.407999 56.4345 0.251999 57.3225 0.251999C59.3865 0.251999 60.4185 1.032 60.4185 2.592C60.4185 2.616 60.3945 4.356 60.3465 7.812C60.3465 8.436 60.3345 9.156 60.3105 9.972C60.3105 10.788 60.3105 11.304 60.3105 11.52ZM60.3825 14.4C60.3825 14.664 60.3825 15.372 60.3825 16.524C60.4065 17.652 60.4185 18.552 60.4185 19.224C60.4185 21.072 60.3705 22.38 60.2745 23.148C61.2825 23.652 62.2065 23.904 63.0465 23.904C65.1825 23.904 66.2505 22.056 66.2505 18.36C66.2505 17.832 66.2145 17.316 66.1425 16.812C66.0945 16.308 65.9865 15.744 65.8185 15.12C65.6745 14.472 65.4105 13.956 65.0265 13.572C64.6425 13.188 64.1745 12.996 63.6225 12.996C62.6865 12.996 61.6065 13.464 60.3825 14.4ZM77.0846 15.696C74.9726 15.312 73.9166 14.412 73.9166 12.996C73.9166 12.036 74.6006 11.22 75.9686 10.548C77.3606 9.876 79.0286 9.54 80.9726 9.54C83.4926 9.54 85.3526 10.02 86.5526 10.98C87.7526 11.94 88.3526 13.536 88.3526 15.768C88.3526 15.96 88.3406 16.668 88.3166 17.892C88.2926 19.116 88.2806 20.028 88.2806 20.628C88.2806 23.388 88.5086 25.452 88.9646 26.82C87.9086 27.108 86.9726 27.252 86.1566 27.252C84.4286 27.252 83.4206 26.556 83.1326 25.164C82.5566 25.836 81.8126 26.376 80.9006 26.784C80.0126 27.168 79.1126 27.36 78.2006 27.36C76.8806 27.36 75.7646 26.94 74.8526 26.1C73.9646 25.236 73.5206 23.964 73.5206 22.284C73.5206 20.94 73.7846 19.956 74.3126 19.332C74.8646 18.708 75.6086 18.24 76.5446 17.928C78.3686 17.352 80.5286 16.992 83.0246 16.848C83.0246 15.384 82.8566 14.364 82.5206 13.788C82.2086 13.188 81.5366 12.888 80.5046 12.888C79.9046 12.888 79.2566 13.14 78.5606 13.644C77.8886 14.148 77.3966 14.832 77.0846 15.696ZM82.9886 19.44C82.2686 19.56 81.7166 19.668 81.3326 19.764C80.9486 19.86 80.5286 20.016 80.0726 20.232C79.6406 20.424 79.3286 20.688 79.1366 21.024C78.9686 21.336 78.8846 21.732 78.8846 22.212C78.8846 22.812 79.0286 23.268 79.3166 23.58C79.6046 23.868 79.9646 24.012 80.3966 24.012C81.4046 24.012 82.2446 23.712 82.9166 23.112C82.8926 22.896 82.8806 22.536 82.8806 22.032C82.8806 21.168 82.9166 20.304 82.9886 19.44ZM105.098 9.54C106.898 9.54 107.798 10.14 107.798 11.34C107.798 12.468 107.366 14.388 106.502 17.1C105.662 19.788 104.654 22.38 103.478 24.876C101.798 28.404 99.9856 31.572 98.0416 34.38C97.3216 35.46 96.4816 36 95.5216 36C94.2976 36 93.1216 35.268 91.9936 33.804C94.0096 32.292 95.8816 30.168 97.6096 27.432C94.3696 18.456 91.9216 13.164 90.2656 11.556C91.8256 10.332 93.1696 9.72 94.2976 9.72C94.8496 9.72 95.2816 9.84 95.5936 10.08C95.9296 10.32 96.2176 10.704 96.4576 11.232C96.8416 12.072 97.4176 13.8 98.1856 16.416C98.9536 19.032 99.5536 21.324 99.9856 23.292C100.634 21.324 101.222 19.164 101.75 16.812C102.302 14.46 102.578 12.768 102.578 11.736C102.578 11.16 102.542 10.608 102.47 10.08C103.286 9.72 104.162 9.54 105.098 9.54ZM113.12 15.696C111.008 15.312 109.952 14.412 109.952 12.996C109.952 12.036 110.636 11.22 112.004 10.548C113.396 9.876 115.064 9.54 117.008 9.54C119.528 9.54 121.388 10.02 122.588 10.98C123.788 11.94 124.388 13.536 124.388 15.768C124.388 15.96 124.376 16.668 124.352 17.892C124.328 19.116 124.316 20.028 124.316 20.628C124.316 23.388 124.544 25.452 125 26.82C123.944 27.108 123.008 27.252 122.192 27.252C120.464 27.252 119.456 26.556 119.168 25.164C118.592 25.836 117.848 26.376 116.936 26.784C116.048 27.168 115.148 27.36 114.236 27.36C112.916 27.36 111.8 26.94 110.888 26.1C110 25.236 109.556 23.964 109.556 22.284C109.556 20.94 109.82 19.956 110.348 19.332C110.9 18.708 111.644 18.24 112.58 17.928C114.404 17.352 116.564 16.992 119.06 16.848C119.06 15.384 118.892 14.364 118.556 13.788C118.244 13.188 117.572 12.888 116.54 12.888C115.94 12.888 115.292 13.14 114.596 13.644C113.924 14.148 113.432 14.832 113.12 15.696ZM119.024 19.44C118.304 19.56 117.752 19.668 117.368 19.764C116.984 19.86 116.564 20.016 116.108 20.232C115.676 20.424 115.364 20.688 115.172 21.024C115.004 21.336 114.92 21.732 114.92 22.212C114.92 22.812 115.064 23.268 115.352 23.58C115.64 23.868 116 24.012 116.432 24.012C117.44 24.012 118.28 23.712 118.952 23.112C118.928 22.896 118.916 22.536 118.916 22.032C118.916 21.168 118.952 20.304 119.024 19.44ZM127.705 10.26C128.689 9.948 129.625 9.792 130.513 9.792C132.265 9.792 133.261 10.5 133.501 11.916C135.061 10.356 136.837 9.576 138.829 9.576C140.461 9.576 141.805 10.044 142.861 10.98C143.917 11.916 144.445 13.248 144.445 14.976C144.445 15.024 144.421 15.888 144.373 17.568C144.349 19.248 144.337 20.52 144.337 21.384C144.337 23.448 144.541 25.2 144.949 26.64C143.917 26.952 142.873 27.108 141.817 27.108C139.897 27.108 138.937 26.376 138.937 24.912C138.937 24.048 138.973 22.464 139.045 20.16C139.117 17.832 139.153 16.428 139.153 15.948C139.153 14.964 138.949 14.232 138.541 13.752C138.157 13.248 137.653 12.996 137.029 12.996C136.021 12.996 134.905 13.584 133.681 14.76C133.729 17.832 133.753 20.052 133.753 21.42C133.753 23.532 133.813 25.38 133.933 26.964C133.141 27.036 132.433 27.072 131.809 27.072C129.409 27.072 128.209 26.496 128.209 25.344C128.209 25.248 128.233 24.408 128.281 22.824C128.353 21.24 128.389 19.596 128.389 17.892C128.389 13.98 128.161 11.436 127.705 10.26ZM172.974 20.628C174.798 21.468 175.71 22.452 175.71 23.58C175.71 24.276 175.41 24.888 174.81 25.416C174.234 25.944 173.502 26.34 172.614 26.604C171.75 26.868 170.922 27.06 170.13 27.18C169.338 27.3 168.618 27.36 167.97 27.36C166.41 27.36 164.922 27.156 163.506 26.748C162.09 26.316 160.734 25.656 159.438 24.768C158.166 23.856 157.146 22.572 156.378 20.916C155.61 19.236 155.226 17.28 155.226 15.048C155.226 11.208 156.366 8.208 158.646 6.048C160.926 3.864 164.022 2.772 167.934 2.772C170.022 2.772 171.774 3.156 173.19 3.924C174.63 4.668 175.35 5.592 175.35 6.696C175.35 7.536 175.002 8.22 174.306 8.748C173.61 9.276 172.686 9.612 171.534 9.756C171.126 8.652 170.478 7.824 169.59 7.272C168.702 6.696 167.754 6.408 166.746 6.408C165.09 6.408 163.722 7.164 162.642 8.676C161.586 10.188 161.058 12.072 161.058 14.328C161.058 16.992 161.598 19.224 162.678 21.024C163.782 22.824 165.318 23.724 167.286 23.724C168.39 23.724 169.446 23.472 170.454 22.968C171.486 22.464 172.326 21.684 172.974 20.628ZM181.035 0.251999C181.947 0.251999 182.655 0.407999 183.159 0.719999C183.663 1.032 183.915 1.644 183.915 2.556C183.915 2.7 183.867 3.756 183.771 5.724C183.699 7.692 183.663 9.168 183.663 10.152V11.736C185.175 10.296 186.891 9.576 188.811 9.576C190.443 9.576 191.787 10.044 192.843 10.98C193.899 11.916 194.427 13.248 194.427 14.976C194.427 15.024 194.403 15.888 194.355 17.568C194.331 19.248 194.319 20.52 194.319 21.384C194.319 23.448 194.523 25.2 194.931 26.64C193.899 26.952 192.855 27.108 191.799 27.108C189.879 27.108 188.919 26.376 188.919 24.912C188.919 24.048 188.955 22.464 189.027 20.16C189.099 17.832 189.135 16.428 189.135 15.948C189.135 14.964 188.931 14.232 188.523 13.752C188.139 13.248 187.635 12.996 187.011 12.996C186.003 12.996 184.887 13.584 183.663 14.76C183.711 17.832 183.735 20.052 183.735 21.42C183.735 23.532 183.795 25.38 183.915 26.964C183.123 27.036 182.415 27.072 181.791 27.072C179.391 27.072 178.191 26.496 178.191 25.344C178.191 25.248 178.215 24.42 178.263 22.86C178.335 21.276 178.371 19.632 178.371 17.928V9.144C178.371 5.712 178.287 2.904 178.119 0.719999C179.031 0.407999 180.003 0.251999 181.035 0.251999ZM212.424 24.984C210.816 26.568 208.704 27.36 206.088 27.36C203.472 27.36 201.36 26.568 199.752 24.984C198.168 23.4 197.376 21.288 197.376 18.648C197.376 15.888 198.168 13.68 199.752 12.024C201.36 10.368 203.472 9.54 206.088 9.54C208.704 9.54 210.816 10.368 212.424 12.024C214.032 13.68 214.836 15.888 214.836 18.648C214.836 21.288 214.032 23.4 212.424 24.984ZM209.472 19.368C209.472 17.544 209.172 16.032 208.572 14.832C207.972 13.608 207.144 12.996 206.088 12.996C205.056 12.996 204.24 13.488 203.64 14.472C203.064 15.456 202.776 16.752 202.776 18.36C202.776 19.944 203.064 21.264 203.64 22.32C204.24 23.352 205.056 23.868 206.088 23.868C207.168 23.868 207.996 23.46 208.572 22.644C209.172 21.804 209.472 20.712 209.472 19.368ZM229.091 9.54C230.075 9.54 230.807 9.696 231.287 10.008C231.767 10.296 232.007 10.8 232.007 11.52C232.007 11.952 231.959 12.408 231.863 12.888C233.447 16.032 234.527 18.996 235.103 21.78C236.543 17.364 237.263 13.836 237.263 11.196C237.263 10.812 237.227 10.44 237.155 10.08C237.947 9.72 238.775 9.54 239.639 9.54C240.623 9.54 241.355 9.696 241.835 10.008C242.315 10.296 242.555 10.8 242.555 11.52C242.555 12.912 242.027 15.144 240.971 18.216C239.939 21.264 238.895 23.556 237.839 25.092C236.951 26.436 235.607 27.108 233.807 27.108C233.063 27.108 232.319 27 231.575 26.784C231.119 24.528 230.567 22.128 229.919 19.584C229.079 21.912 228.203 23.748 227.291 25.092C226.403 26.436 225.059 27.108 223.259 27.108C222.515 27.108 221.771 27 221.027 26.784C220.499 24.12 219.647 21.096 218.471 17.712C217.295 14.304 216.311 12.144 215.519 11.232C216.623 10.224 217.775 9.72 218.975 9.72C220.271 9.72 221.231 10.44 221.855 11.88C222.935 15.144 223.835 18.444 224.555 21.78C225.995 17.364 226.715 13.836 226.715 11.196C226.715 10.812 226.679 10.44 226.607 10.08C227.375 9.72 228.203 9.54 229.091 9.54ZM244.38 18.468C244.38 15.996 245.064 13.896 246.432 12.168C247.8 10.416 249.504 9.54 251.544 9.54C252.888 9.54 254.244 9.948 255.612 10.764C255.66 9.228 255.684 8.016 255.684 7.128C255.684 4.512 255.588 2.376 255.396 0.719999C256.5 0.407999 257.304 0.251999 257.808 0.251999C260.04 0.251999 261.156 1.02 261.156 2.556C261.156 3.972 261.096 6.696 260.976 10.728C260.88 14.76 260.832 17.508 260.832 18.972C260.832 22.764 261.06 25.38 261.516 26.82C260.364 27.108 259.428 27.252 258.708 27.252C257.7 27.252 256.98 27.072 256.548 26.712C256.116 26.328 255.828 25.812 255.684 25.164C255.06 25.812 254.328 26.34 253.488 26.748C252.672 27.156 251.892 27.36 251.148 27.36C249.3 27.36 247.704 26.52 246.36 24.84C245.04 23.16 244.38 21.036 244.38 18.468ZM255.468 13.752C254.748 13.224 254.004 12.96 253.236 12.96C252.156 12.96 251.304 13.44 250.68 14.4C250.056 15.336 249.744 16.584 249.744 18.144C249.744 19.872 250.056 21.3 250.68 22.428C251.304 23.532 252.072 24.084 252.984 24.084C254.04 24.084 254.892 23.724 255.54 23.004C255.492 18.06 255.468 14.976 255.468 13.752ZM267.238 0.251999C268.15 0.251999 268.858 0.407999 269.362 0.719999C269.866 1.032 270.118 1.644 270.118 2.556C270.118 2.7 270.07 3.756 269.974 5.724C269.902 7.692 269.866 9.168 269.866 10.152V11.736C271.378 10.296 273.094 9.576 275.014 9.576C276.646 9.576 277.99 10.044 279.046 10.98C280.102 11.916 280.63 13.248 280.63 14.976C280.63 15.024 280.606 15.888 280.558 17.568C280.534 19.248 280.522 20.52 280.522 21.384C280.522 23.448 280.726 25.2 281.134 26.64C280.102 26.952 279.058 27.108 278.002 27.108C276.082 27.108 275.122 26.376 275.122 24.912C275.122 24.048 275.158 22.464 275.23 20.16C275.302 17.832 275.338 16.428 275.338 15.948C275.338 14.964 275.134 14.232 274.726 13.752C274.342 13.248 273.838 12.996 273.214 12.996C272.206 12.996 271.09 13.584 269.866 14.76C269.914 17.832 269.938 20.052 269.938 21.42C269.938 23.532 269.998 25.38 270.118 26.964C269.326 27.036 268.618 27.072 267.994 27.072C265.594 27.072 264.394 26.496 264.394 25.344C264.394 25.248 264.418 24.42 264.466 22.86C264.538 21.276 264.574 19.632 264.574 17.928V9.144C264.574 5.712 264.49 2.904 264.322 0.719999C265.234 0.407999 266.206 0.251999 267.238 0.251999ZM301.039 26.64C299.863 26.952 298.855 27.108 298.015 27.108C297.247 27.108 296.587 26.94 296.035 26.604C295.507 26.244 295.219 25.728 295.171 25.056C293.419 26.592 291.523 27.36 289.483 27.36C286.099 27.36 284.407 25.668 284.407 22.284C284.407 22.212 284.419 21.336 284.443 19.656C284.491 17.976 284.515 16.716 284.515 15.876C284.515 13.38 284.323 11.508 283.939 10.26C284.875 9.948 285.847 9.792 286.855 9.792C288.919 9.792 289.951 10.524 289.951 11.988C289.951 12.78 289.915 14.256 289.843 16.416C289.771 18.576 289.735 19.872 289.735 20.304C289.735 21.456 289.915 22.344 290.275 22.968C290.659 23.592 291.127 23.904 291.679 23.904C292.903 23.904 294.043 23.34 295.099 22.212C295.075 21.276 295.063 19.824 295.063 17.856C295.063 15.072 294.979 12.54 294.811 10.26C295.771 9.948 296.695 9.792 297.583 9.792C298.543 9.792 299.287 9.936 299.815 10.224C300.343 10.512 300.607 11.112 300.607 12.024C300.607 12.264 300.571 12.996 300.499 14.22C300.451 15.444 300.415 16.404 300.391 17.1V19.692C300.391 22.74 300.607 25.056 301.039 26.64ZM306.754 9.792C307.666 9.792 308.374 9.948 308.878 10.26C309.382 10.572 309.634 11.184 309.634 12.096V12.564C310.282 11.796 311.05 11.1 311.938 10.476C312.85 9.852 313.75 9.54 314.638 9.54C315.334 9.54 315.874 9.708 316.258 10.044C316.642 10.356 316.834 10.776 316.834 11.304C316.834 12.288 316.402 13.248 315.538 14.184C314.698 13.656 313.918 13.392 313.198 13.392C312.142 13.392 310.906 14.124 309.49 15.588C309.418 17.004 309.382 18.372 309.382 19.692C309.382 23.1 309.586 25.416 309.994 26.64C308.986 26.952 307.99 27.108 307.006 27.108C305.878 27.108 305.086 26.916 304.63 26.532C304.198 26.124 303.982 25.536 303.982 24.768C303.982 24.384 303.994 23.484 304.018 22.068C304.066 20.652 304.09 19.524 304.09 18.684C304.09 15.252 304.006 12.444 303.838 10.26C304.75 9.948 305.722 9.792 306.754 9.792ZM331.855 9.54C333.655 9.54 334.555 10.14 334.555 11.34C334.555 12.468 334.123 14.388 333.259 17.1C332.419 19.788 331.411 22.38 330.235 24.876C328.555 28.404 326.743 31.572 324.799 34.38C324.079 35.46 323.239 36 322.279 36C321.055 36 319.879 35.268 318.751 33.804C320.767 32.292 322.639 30.168 324.367 27.432C321.127 18.456 318.679 13.164 317.023 11.556C318.583 10.332 319.927 9.72 321.055 9.72C321.607 9.72 322.039 9.84 322.351 10.08C322.687 10.32 322.975 10.704 323.215 11.232C323.599 12.072 324.175 13.8 324.943 16.416C325.711 19.032 326.311 21.324 326.743 23.292C327.391 21.324 327.979 19.164 328.507 16.812C329.059 14.46 329.335 12.768 329.335 11.736C329.335 11.16 329.299 10.608 329.227 10.08C330.043 9.72 330.919 9.54 331.855 9.54Z" fill="#00A8E8"/>
</svg>
